{"accessors":[{"bufferView":0,"byteOffset":0,"componentType":5126,"count":507,"max":[0.005,0.005,0.005],"min":[-0.005,-0.005,-0.005],"type":"VEC3"},{"bufferView":0,"byteOffset":6084,"componentType":5126,"count":507,"max":[0.005,0.005,0.005],"min":[-0.005,-0.005,-0.005],"type":"VEC3"},{"bufferView":0,"byteOffset":12168,"componentType":5126,"count":507,"max":[0.005,0.005,0.005],"min":[-0.005,-0.005,-0.005],"type":"VEC3"},{"bufferView":0,"byteOffset":18252,"componentType":5126,"count":507,"max":[0.005,0.005,0.005],"min":[-0.005,-0.005,-0.005],"type":"VEC3"},{"bufferView":0,"byteOffset":24336,"componentType":5126,"count":507,"max":[0.005,0.005,0.005],"min":[-0.005000000000000004,-0.005,-0.005],"type":"VEC3"},{"bufferView":0,"byteOffset":30420,"componentType":5126,"count":507,"max":[0.005,0.005,0.005],"min":[-0.005,-0.005,-0.005],"type":"VEC3"},{"bufferView":0,"byteOffset":36504,"componentType":5126,"count":507,"max":[0.005,0.005,0.005],"min":[-0.005,-0.005,-0.005],"type":"VEC3"},{"bufferView":0,"byteOffset":42588,"componentType":5126,"count":507,"max":[0.005,0.005,0.005],"min":[-0.005,-0.005,-0.005],"type":"VEC3"},{"bufferView":0,"byteOffset":48672,"componentType":5126,"count":507,"max":[0.005,0.005,0.005],"min":[-0.005,-0.005,-0.005],"type":"VEC3"},{"bufferView":0,"byteOffset":54756,"componentType":5126,"count":507,"max":[0.005000000000000004,0.005,0.005],"min":[-0.005,-0.005,-0.005],"type":"VEC3"},{"bufferView":0,"byteOffset":60840,"componentType":5126,"count":70,"max":[0.025,0.014,0.024893354407375865],"min":[-0.025,0.011830127018922157,-0.024893354407375872],"type":"VEC3"},{"bufferView":0,"byteOffset":61680,"componentType":5126,"count":350,"max":[0.02499999999999997,0.011830127018922195,0.024893354407375865],"min":[-0.025,0.0031698729810778065,-0.024893354407375872],"type":"VEC3"},{"bufferView":0,"byteOffset":65880,"componentType":5126,"count":322,"max":[0.025,0.015,0.02494663978992849],"min":[-0.025,0.014,-0.024893354407375865],"type":"VEC3"},{"bufferView":0,"byteOffset":69744,"componentType":5126,"count":70,"max":[0.025,0.0031698729810778446,0.024893354407375865],"min":[-0.025,0.001,-0.024893354407375872],"type":"VEC3"},{"bufferView":0,"byteOffset":70584,"componentType":5126,"count":60,"max":[0.024,0.015,0.023972816140392192],"min":[-0.023891326141754033,0.015,-0.023972816140392192],"type":"VEC3"},{"bufferView":0,"byteOffset":71304,"componentType":5126,"count":325,"max":[0.025,0.001,0.024893354407375865],"min":[-0.025,0.0,-0.024893354407375865],"type":"VEC3"},{"bufferView":0,"byteOffset":75204,"componentType":5126,"count":264,"max":[0.016,0.015,0.01597293053234029],"min":[-0.01589181372387109,0.014,-0.01597293053234029],"type":"VEC3"},{"bufferView":0,"byteOffset":78372,"componentType":5126,"count":60,"max":[0.024,0.0,0.023972816140392192],"min":[-0.023891326141754033,0.0,-0.023972816140392192],"type":"VEC3"},{"bufferView":0,"byteOffset":79092,"componentType":5126,"count":54,"max":[0.015,0.014,0.014890633111470814],"min":[-0.015,0.001,-0.014890633111470809],"type":"VEC3"},{"bufferView":0,"byteOffset":79740,"componentType":5126,"count":267,"max":[0.016,0.001,0.01597293053234029],"min":[-0.01589181372387109,0.0,-0.01597293053234029],"type":"VEC3"},{"bufferView":0,"byteOffset":82944,"componentType":5126,"count":74,"max":[0.04,0.014,0.04],"min":[-0.04,0.001,-0.04],"type":"VEC3"},{"bufferView":0,"byteOffset":83832,"componentType":5126,"count":296,"max":[0.04,0.015,0.04],"min":[-0.04,0.014,-0.04],"type":"VEC3"},{"bufferView":0,"byteOffset":87384,"componentType":5126,"count":296,"max":[0.04,0.001,0.04],"min":[-0.04,0.0,-0.04],"type":"VEC3"},{"bufferView":0,"byteOffset":90936,"componentType":5126,"count":68,"max":[0.039,0.015,0.039],"min":[-0.039,0.015,-0.039],"type":"VEC3"},{"bufferView":0,"byteOffset":91752,"componentType":5126,"count":68,"max":[0.039,0.0,0.039],"min":[-0.039,0.0,-0.039],"type":"VEC3"},{"bufferView":0,"byteOffset":92568,"componentType":5126,"count":296,"max":[0.031,0.015,0.031],"min":[-0.031,0.014,-0.031],"type":"VEC3"},{"bufferView":0,"byteOffset":96120,"componentType":5126,"count":301,"max":[0.031,0.001,0.031],"min":[-0.031,0.0,-0.031],"type":"VEC3"},{"bufferView":0,"byteOffset":99732,"componentType":5126,"count":64,"max":[0.030000000000000075,0.014,0.029961495215131584],"min":[-0.02984607970175686,0.011830127018922106,-0.02996149521513158],"type":"VEC3"},{"bufferView":0,"byteOffset":100500,"componentType":5126,"count":64,"max":[0.03000000000000008,0.0031698729810778945,0.029961495215131584],"min":[-0.02984607970175686,0.001,-0.02996149521513158],"type":"VEC3"},{"bufferView":0,"byteOffset":101268,"componentType":5126,"count":259,"max":[0.0325,0.011830127018922195,0.0325],"min":[-0.0325,0.0075,-0.0325],"type":"VEC3"},{"bufferView":0,"byteOffset":104376,"componentType":5126,"count":261,"max":[0.0325,0.0075,0.0325],"min":[-0.0325,0.0031698729810778065,-0.0325],"type":"VEC3"},{"bufferView":1,"byteOffset":0,"componentType":5126,"count":507,"type":"VEC3"},{"bufferView":1,"byteOffset":6084,"componentType":5126,"count":507,"type":"VEC3"},{"bufferView":1,"byteOffset":12168,"componentType":5126,"count":507,"type":"VEC3"},{"bufferView":1,"byteOffset":18252,"componentType":5126,"count":507,"type":"VEC3"},{"bufferView":1,"byteOffset":24336,"componentType":5126,"count":507,"type":"VEC3"},{"bufferView":1,"byteOffset":30420,"componentType":5126,"count":507,"type":"VEC3"},{"bufferView":1,"byteOffset":36504,"componentType":5126,"count":507,"type":"VEC3"},{"bufferView":1,"byteOffset":42588,"componentType":5126,"count":507,"type":"VEC3"},{"bufferView":1,"byteOffset":48672,"componentType":5126,"count":507,"type":"VEC3"},{"bufferView":1,"byteOffset":54756,"componentType":5126,"count":507,"type":"VEC3"},{"bufferView":1,"byteOffset":60840,"componentType":5126,"count":70,"type":"VEC3"},{"bufferView":1,"byteOffset":61680,"componentType":5126,"count":350,"type":"VEC3"},{"bufferView":1,"byteOffset":65880,"componentType":5126,"count":322,"type":"VEC3"},{"bufferView":1,"byteOffset":69744,"componentType":5126,"count":70,"type":"VEC3"},{"bufferView":1,"byteOffset":70584,"componentType":5126,"count":60,"type":"VEC3"},{"bufferView":1,"byteOffset":71304,"componentType":5126,"count":325,"type":"VEC3"},{"bufferView":1,"byteOffset":75204,"componentType":5126,"count":264,"type":"VEC3"},{"bufferView":1,"byteOffset":78372,"componentType":5126,"count":60,"type":"VEC3"},{"bufferView":1,"byteOffset":79092,"componentType":5126,"count":54,"type":"VEC3"},{"bufferView":1,"byteOffset":79740,"componentType":5126,"count":267,"type":"VEC3"},{"bufferView":1,"byteOffset":82944,"componentType":5126,"count":74,"type":"VEC3"},{"bufferView":1,"byteOffset":83832,"componentType":5126,"count":296,"type":"VEC3"},{"bufferView":1,"byteOffset":87384,"componentType":5126,"count":296,"type":"VEC3"},{"bufferView":1,"byteOffset":90936,"componentType":5126,"count":68,"type":"VEC3"},{"bufferView":1,"byteOffset":91752,"componentType":5126,"count":68,"type":"VEC3"},{"bufferView":1,"byteOffset":92568,"componentType":5126,"count":296,"type":"VEC3"},{"bufferView":1,"byteOffset":96120,"componentType":5126,"count":301,"type":"VEC3"},{"bufferView":1,"byteOffset":99732,"componentType":5126,"count":64,"type":"VEC3"},{"bufferView":1,"byteOffset":100500,"componentType":5126,"count":64,"type":"VEC3"},{"bufferView":1,"byteOffset":101268,"componentType":5126,"count":259,"type":"VEC3"},{"bufferView":1,"byteOffset":104376,"componentType":5126,"count":261,"type":"VEC3"},{"bufferView":2,"byteOffset":0,"componentType":5123,"count":2934,"type":"SCALAR"},{"bufferView":2,"byteOffset":5868,"componentType":5123,"count":2934,"type":"SCALAR"},{"bufferView":2,"byteOffset":11736,"componentType":5123,"count":2934,"type":"SCALAR"},{"bufferView":2,"byteOffset":17604,"componentType":5123,"count":2934,"type":"SCALAR"},{"bufferView":2,"byteOffset":23472,"componentType":5123,"count":2934,"type":"SCALAR"},{"bufferView":2,"byteOffset":29340,"componentType":5123,"count":2934,"type":"SCALAR"},{"bufferView":2,"byteOffset":35208,"componentType":5123,"count":2934,"type":"SCALAR"},{"bufferView":2,"byteOffset":41076,"componentType":5123,"count":2934,"type":"SCALAR"},{"bufferView":2,"byteOffset":46944,"componentType":5123,"count":2934,"type":"SCALAR"},{"bufferView":2,"byteOffset":52812,"componentType":5123,"count":2934,"type":"SCALAR"},{"bufferView":2,"byteOffset":58680,"componentType":5123,"count":204,"type":"SCALAR"},{"bufferView":2,"byteOffset":59088,"componentType":5123,"count":1836,"type":"SCALAR"},{"bufferView":2,"byteOffset":62760,"componentType":5123,"count":1683,"type":"SCALAR"},{"bufferView":2,"byteOffset":66128,"componentType":5123,"count":204,"type":"SCALAR"},{"bufferView":2,"byteOffset":66536,"componentType":5123,"count":180,"type":"SCALAR"},{"bufferView":2,"byteOffset":66896,"componentType":5123,"count":1701,"type":"SCALAR"},{"bufferView":2,"byteOffset":70300,"componentType":5123,"count":1377,"type":"SCALAR"},{"bufferView":2,"byteOffset":73056,"componentType":5123,"count":180,"type":"SCALAR"},{"bufferView":2,"byteOffset":73416,"componentType":5123,"count":156,"type":"SCALAR"},{"bufferView":2,"byteOffset":73728,"componentType":5123,"count":1395,"type":"SCALAR"},{"bufferView":2,"byteOffset":76520,"componentType":5123,"count":216,"type":"SCALAR"},{"bufferView":2,"byteOffset":76952,"componentType":5123,"count":1512,"type":"SCALAR"},{"bufferView":2,"byteOffset":79976,"componentType":5123,"count":1512,"type":"SCALAR"},{"bufferView":2,"byteOffset":83000,"componentType":5123,"count":204,"type":"SCALAR"},{"bufferView":2,"byteOffset":83408,"componentType":5123,"count":204,"type":"SCALAR"},{"bufferView":2,"byteOffset":83816,"componentType":5123,"count":1539,"type":"SCALAR"},{"bufferView":2,"byteOffset":86896,"componentType":5123,"count":1569,"type":"SCALAR"},{"bufferView":2,"byteOffset":90036,"componentType":5123,"count":186,"type":"SCALAR"},{"bufferView":2,"byteOffset":90408,"componentType":5123,"count":186,"type":"SCALAR"},{"bufferView":2,"byteOffset":90780,"componentType":5123,"count":1329,"type":"SCALAR"},{"bufferView":2,"byteOffset":93440,"componentType":5123,"count":1341,"type":"SCALAR"}],"asset":{"generator":"Open CASCADE Technology 7.8 [dev.opencascade.org]","version":"2.0"},"bufferViews":[{"buffer":0,"byteLength":107508,"byteOffset":0,"byteStride":12,"target":34962},{"buffer":0,"byteLength":107508,"byteOffset":107508,"byteStride":12,"target":34962},{"buffer":0,"byteLength":96124,"byteOffset":215016,"target":34963}],"buffers":[{"byteLength":311140,"uri":"Bearing.bin"}],"materials":[{"name":"mat_0","pbrMetallicRoughness":{"baseColorFactor":[0.168269544839859,0.19120186567306519,0.21586069464683533,1.0]},"doubleSided":true}],"meshes":[{"name":"Shape011","primitives":[{"attributes":{"NORMAL":31,"POSITION":0},"indices":62,"material":0,"mode":4}]},{"name":"Shape010","primitives":[{"attributes":{"NORMAL":32,"POSITION":1},"indices":63,"material":0,"mode":4}]},{"name":"Shape009","primitives":[{"attributes":{"NORMAL":33,"POSITION":2},"indices":64,"material":0,"mode":4}]},{"name":"Shape008","primitives":[{"attributes":{"NORMAL":34,"POSITION":3},"indices":65,"material":0,"mode":4}]},{"name":"Shape007","primitives":[{"attributes":{"NORMAL":35,"POSITION":4},"indices":66,"material":0,"mode":4}]},{"name":"Shape006","primitives":[{"attributes":{"NORMAL":36,"POSITION":5},"indices":67,"material":0,"mode":4}]},{"name":"Shape005","primitives":[{"attributes":{"NORMAL":37,"POSITION":6},"indices":68,"material":0,"mode":4}]},{"name":"Shape004","primitives":[{"attributes":{"NORMAL":38,"POSITION":7},"indices":69,"material":0,"mode":4}]},{"name":"Shape003","primitives":[{"attributes":{"NORMAL":39,"POSITION":8},"indices":70,"material":0,"mode":4}]},{"name":"Shape002","primitives":[{"attributes":{"NORMAL":40,"POSITION":9},"indices":71,"material":0,"mode":4}]},{"name":"Shape001","primitives":[{"attributes":{"NORMAL":41,"POSITION":10},"indices":72,"material":0,"mode":4},{"attributes":{"NORMAL":42,"POSITION":11},"indices":73,"material":0,"mode":4},{"attributes":{"NORMAL":43,"POSITION":12},"indices":74,"material":0,"mode":4},{"attributes":{"NORMAL":44,"POSITION":13},"indices":75,"material":0,"mode":4},{"attributes":{"NORMAL":45,"POSITION":14},"indices":76,"material":0,"mode":4},{"attributes":{"NORMAL":46,"POSITION":15},"indices":77,"material":0,"mode":4},{"attributes":{"NORMAL":47,"POSITION":16},"indices":78,"material":0,"mode":4},{"attributes":{"NORMAL":48,"POSITION":17},"indices":79,"material":0,"mode":4},{"attributes":{"NORMAL":49,"POSITION":18},"indices":80,"material":0,"mode":4},{"attributes":{"NORMAL":50,"POSITION":19},"indices":81,"material":0,"mode":4}]},{"name":"Shape","primitives":[{"attributes":{"NORMAL":51,"POSITION":20},"indices":82,"material":0,"mode":4},{"attributes":{"NORMAL":52,"POSITION":21},"indices":83,"material":0,"mode":4},{"attributes":{"NORMAL":53,"POSITION":22},"indices":84,"material":0,"mode":4},{"attributes":{"NORMAL":54,"POSITION":23},"indices":85,"material":0,"mode":4},{"attributes":{"NORMAL":55,"POSITION":24},"indices":86,"material":0,"mode":4},{"attributes":{"NORMAL":56,"POSITION":25},"indices":87,"material":0,"mode":4},{"attributes":{"NORMAL":57,"POSITION":26},"indices":88,"material":0,"mode":4},{"attributes":{"NORMAL":58,"POSITION":27},"indices":89,"material":0,"mode":4},{"attributes":{"NORMAL":59,"POSITION":28},"indices":90,"material":0,"mode":4},{"attributes":{"NORMAL":60,"POSITION":29},"indices":91,"material":0,"mode":4},{"attributes":{"NORMAL":61,"POSITION":30},"indices":92,"material":0,"mode":4}]}],"nodes":[{"children":[1,2,3,4,5,6,7,8,9,10,11,12],"name":"Bearing"},{"translation":[0.022207516495592307,0.0075,0.016134705175428393],"mesh":0,"name":"Shape011"},{"translation":[0.008482516495592302,0.0075,0.026106501372301968],"mesh":1,"name":"Shape010"},{"translation":[-0.008482516495592311,0.0075,0.026106501372301964],"mesh":2,"name":"Shape009"},{"translation":[-0.02220751649559231,0.0075,0.016134705175428383],"mesh":3,"name":"Shape008"},{"translation":[-0.02745,0.0075,-3.3616554636594847e-18],"mesh":4,"name":"Shape007"},{"translation":[-0.022207516495592307,0.0075,-0.01613470517542839],"mesh":5,"name":"Shape006"},{"translation":[-0.008482516495592304,0.0075,-0.026106501372301968],"mesh":6,"name":"Shape005"},{"translation":[0.008482516495592307,0.0075,-0.026106501372301964],"mesh":7,"name":"Shape004"},{"translation":[0.02220751649559231,0.0075,-0.016134705175428386],"mesh":8,"name":"Shape003"},{"translation":[0.02745,0.0075,0.0],"mesh":9,"name":"Shape002"},{"mesh":10,"name":"Shape001"},{"mesh":11,"name":"Shape"}],"scene":0,"scenes":[{"nodes":[0]}]}