{"accessors":[{"bufferView":0,"byteOffset":0,"componentType":5126,"count":76,"max":[0.05,0.0075,0.049954948310234074],"min":[-0.04981987442712633,0.0,-0.049954948310234074],"type":"VEC3"},{"bufferView":0,"byteOffset":912,"componentType":5126,"count":219,"max":[0.05,0.0,0.049954948310234074],"min":[-0.04981987442712633,0.0,-0.049954948310234074],"type":"VEC3"},{"bufferView":0,"byteOffset":3540,"componentType":5126,"count":222,"max":[0.05,0.0075,0.049954948310234074],"min":[-0.04981987442712633,0.0075,-0.049954948310234074],"type":"VEC3"},{"bufferView":0,"byteOffset":6204,"componentType":5126,"count":54,"max":[-0.012750000000000018,0.0075,0.03843220588650477],"min":[-0.02475000000000002,0.0,0.02651969939732812],"type":"VEC3"},{"bufferView":0,"byteOffset":6852,"componentType":5126,"count":54,"max":[0.024750000000000005,0.0075,0.038432205886504776],"min":[0.012750000000000004,0.0,0.026519699397328126],"type":"VEC3"},{"bufferView":0,"byteOffset":7500,"componentType":5126,"count":54,"max":[-0.0315,0.0075,0.005956253244588322],"min":[-0.043500000000000004,0.0,-0.00595625324458833],"type":"VEC3"},{"bufferView":0,"byteOffset":8148,"componentType":5126,"count":54,"max":[-0.012749999999999994,0.0075,-0.026519699397328126],"min":[-0.024749999999999994,0.0,-0.038432205886504776],"type":"VEC3"},{"bufferView":0,"byteOffset":8796,"componentType":5126,"count":54,"max":[0.025,0.0225,0.024817721852451357],"min":[-0.025,0.0,-0.02481772185245135],"type":"VEC3"},{"bufferView":0,"byteOffset":9444,"componentType":5126,"count":54,"max":[0.043500000000000004,0.0075,0.005956253244588326],"min":[0.0315,0.0,-0.005956253244588326],"type":"VEC3"},{"bufferView":0,"byteOffset":10092,"componentType":5126,"count":54,"max":[0.024750000000000005,0.0075,-0.026519699397328126],"min":[0.012750000000000004,0.0,-0.038432205886504776],"type":"VEC3"},{"bufferView":0,"byteOffset":10740,"componentType":5126,"count":60,"max":[0.03,0.0225,0.029956002415533714],"min":[-0.029824138714630792,0.0075,-0.029956002415533714],"type":"VEC3"},{"bufferView":0,"byteOffset":11460,"componentType":5126,"count":55,"max":[0.03,0.0225,0.029956002415533714],"min":[-0.029824138714630792,0.0225,-0.029956002415533714],"type":"VEC3"},{"bufferView":1,"byteOffset":0,"componentType":5126,"count":76,"type":"VEC3"},{"bufferView":1,"byteOffset":912,"componentType":5126,"count":219,"type":"VEC3"},{"bufferView":1,"byteOffset":3540,"componentType":5126,"count":222,"type":"VEC3"},{"bufferView":1,"byteOffset":6204,"componentType":5126,"count":54,"type":"VEC3"},{"bufferView":1,"byteOffset":6852,"componentType":5126,"count":54,"type":"VEC3"},{"bufferView":1,"byteOffset":7500,"componentType":5126,"count":54,"type":"VEC3"},{"bufferView":1,"byteOffset":8148,"componentType":5126,"count":54,"type":"VEC3"},{"bufferView":1,"byteOffset":8796,"componentType":5126,"count":54,"type":"VEC3"},{"bufferView":1,"byteOffset":9444,"componentType":5126,"count":54,"type":"VEC3"},{"bufferView":1,"byteOffset":10092,"componentType":5126,"count":54,"type":"VEC3"},{"bufferView":1,"byteOffset":10740,"componentType":5126,"count":60,"type":"VEC3"},{"bufferView":1,"byteOffset":11460,"componentType":5126,"count":55,"type":"VEC3"},{"bufferView":2,"byteOffset":0,"componentType":5123,"count":222,"type":"SCALAR"},{"bufferView":2,"byteOffset":444,"componentType":5123,"count":693,"type":"SCALAR"},{"bufferView":2,"byteOffset":1832,"componentType":5123,"count":702,"type":"SCALAR"},{"bufferView":2,"byteOffset":3236,"componentType":5123,"count":156,"type":"SCALAR"},{"bufferView":2,"byteOffset":3548,"componentType":5123,"count":156,"type":"SCALAR"},{"bufferView":2,"byteOffset":3860,"componentType":5123,"count":156,"type":"SCALAR"},{"bufferView":2,"byteOffset":4172,"componentType":5123,"count":156,"type":"SCALAR"},{"bufferView":2,"byteOffset":4484,"componentType":5123,"count":156,"type":"SCALAR"},{"bufferView":2,"byteOffset":4796,"componentType":5123,"count":156,"type":"SCALAR"},{"bufferView":2,"byteOffset":5108,"componentType":5123,"count":156,"type":"SCALAR"},{"bufferView":2,"byteOffset":5420,"componentType":5123,"count":174,"type":"SCALAR"},{"bufferView":2,"byteOffset":5768,"componentType":5123,"count":165,"type":"SCALAR"}],"asset":{"generator":"Open CASCADE Technology 7.8 [dev.opencascade.org]","version":"2.0"},"bufferViews":[{"buffer":0,"byteLength":12120,"byteOffset":0,"byteStride":12,"target":34962},{"buffer":0,"byteLength":12120,"byteOffset":12120,"byteStride":12,"target":34962},{"buffer":0,"byteLength":6100,"byteOffset":24240,"target":34963}],"buffers":[{"byteLength":30340,"uri":"Flange.bin"}],"materials":[{"name":"mat_0","pbrMetallicRoughness":{"baseColorFactor":[0.168269544839859,0.19120186567306519,0.21586069464683533,1.0]},"doubleSided":true}],"meshes":[{"name":"Cut_Bolt_06","primitives":[{"attributes":{"NORMAL":12,"POSITION":0},"indices":24,"material":0,"mode":4},{"attributes":{"NORMAL":13,"POSITION":1},"indices":25,"material":0,"mode":4},{"attributes":{"NORMAL":14,"POSITION":2},"indices":26,"material":0,"mode":4},{"attributes":{"NORMAL":15,"POSITION":3},"indices":27,"material":0,"mode":4},{"attributes":{"NORMAL":16,"POSITION":4},"indices":28,"material":0,"mode":4},{"attributes":{"NORMAL":17,"POSITION":5},"indices":29,"material":0,"mode":4},{"attributes":{"NORMAL":18,"POSITION":6},"indices":30,"material":0,"mode":4},{"attributes":{"NORMAL":19,"POSITION":7},"indices":31,"material":0,"mode":4},{"attributes":{"NORMAL":20,"POSITION":8},"indices":32,"material":0,"mode":4},{"attributes":{"NORMAL":21,"POSITION":9},"indices":33,"material":0,"mode":4},{"attributes":{"NORMAL":22,"POSITION":10},"indices":34,"material":0,"mode":4},{"attributes":{"NORMAL":23,"POSITION":11},"indices":35,"material":0,"mode":4}]}],"nodes":[{"mesh":0,"name":"Cut_Bolt_06"}],"scene":0,"scenes":[{"nodes":[0]}]}