{"accessors":[{"bufferView":0,"byteOffset":0,"componentType":5126,"count":660,"max":[0.0659630201464274,0.1,0.06604722159161279],"min":[-0.06604722159161279,0.0,-0.06604722159161279],"type":"VEC3"},{"bufferView":0,"byteOffset":7920,"componentType":5126,"count":26,"max":[0.035,0.1,0.0347448105934319],"min":[-0.035,0.1,-0.03474481059343189],"type":"VEC3"},{"bufferView":0,"byteOffset":8232,"componentType":5126,"count":29,"max":[0.05,0.0,0.04992667069255619],"min":[-0.04970689785771799,0.0,-0.04992667069255619],"type":"VEC3"},{"bufferView":0,"byteOffset":8580,"componentType":5126,"count":604,"max":[0.036000000000000004,0.038,0.035963750395487326],"min":[-0.035925975585731074,0.0,-0.03596375039548733],"type":"VEC3"},{"bufferView":0,"byteOffset":15828,"componentType":5126,"count":35,"max":[0.036000000000000004,0.0,0.035963750395487326],"min":[-0.035855074583828604,0.0,-0.03596375039548733],"type":"VEC3"},{"bufferView":0,"byteOffset":16248,"componentType":5126,"count":698,"max":[0.0060000000000000105,0.07814619816019737,-0.05314483644161428],"min":[-0.006000000000000002,0.025769954654744385,-0.0784819210530323],"type":"VEC3"},{"bufferView":0,"byteOffset":24624,"componentType":5126,"count":68,"max":[0.007,0.07224091650367202,0.12412929744237085],"min":[-0.006989878172840421,0.02974140511525831,0.05787954174816389],"type":"VEC3"},{"bufferView":1,"byteOffset":0,"componentType":5126,"count":660,"type":"VEC3"},{"bufferView":1,"byteOffset":7920,"componentType":5126,"count":26,"type":"VEC3"},{"bufferView":1,"byteOffset":8232,"componentType":5126,"count":29,"type":"VEC3"},{"bufferView":1,"byteOffset":8580,"componentType":5126,"count":604,"type":"VEC3"},{"bufferView":1,"byteOffset":15828,"componentType":5126,"count":35,"type":"VEC3"},{"bufferView":1,"byteOffset":16248,"componentType":5126,"count":698,"type":"VEC3"},{"bufferView":1,"byteOffset":24624,"componentType":5126,"count":68,"type":"VEC3"},{"bufferView":2,"byteOffset":0,"componentType":5123,"count":3735,"type":"SCALAR"},{"bufferView":2,"byteOffset":7472,"componentType":5123,"count":72,"type":"SCALAR"},{"bufferView":2,"byteOffset":7616,"componentType":5123,"count":81,"type":"SCALAR"},{"bufferView":2,"byteOffset":7780,"componentType":5123,"count":3432,"type":"SCALAR"},{"bufferView":2,"byteOffset":14644,"componentType":5123,"count":99,"type":"SCALAR"},{"bufferView":2,"byteOffset":14844,"componentType":5123,"count":3924,"type":"SCALAR"},{"bufferView":2,"byteOffset":22692,"componentType":5123,"count":198,"type":"SCALAR"}],"asset":{"generator":"Open CASCADE Technology 7.8 [dev.opencascade.org]","version":"2.0"},"bufferViews":[{"buffer":0,"byteLength":25440,"byteOffset":0,"byteStride":12,"target":34962},{"buffer":0,"byteLength":25440,"byteOffset":25440,"byteStride":12,"target":34962},{"buffer":0,"byteLength":23088,"byteOffset":50880,"target":34963}],"buffers":[{"byteLength":73968,"uri":"Teapot.bin"}],"materials":[{"name":"mat_0","pbrMetallicRoughness":{"baseColorFactor":[0.7874122262001038,0.4479883909225464,0.4479883909225464,1.0]},"doubleSided":true}],"meshes":[{"name":"Body","primitives":[{"attributes":{"NORMAL":7,"POSITION":0},"indices":14,"material":0,"mode":4},{"attributes":{"NORMAL":8,"POSITION":1},"indices":15,"material":0,"mode":4},{"attributes":{"NORMAL":9,"POSITION":2},"indices":16,"material":0,"mode":4}]},{"name":"Lid","primitives":[{"attributes":{"NORMAL":10,"POSITION":3},"indices":17,"material":0,"mode":4},{"attributes":{"NORMAL":11,"POSITION":4},"indices":18,"material":0,"mode":4}]},{"name":"Handle","primitives":[{"attributes":{"NORMAL":12,"POSITION":5},"indices":19,"material":0,"mode":4}]},{"name":"Spout","primitives":[{"attributes":{"NORMAL":13,"POSITION":6},"indices":20,"material":0,"mode":4}]}],"nodes":[{"children":[1,2,3,4],"name":"Teapot"},{"mesh":0,"name":"Body"},{"translation":[0.0,0.1,0.0],"mesh":1,"name":"Lid"},{"mesh":2,"name":"Handle"},{"mesh":3,"name":"Spout"}],"scene":0,"scenes":[{"nodes":[0]}]}